<?xml version="1.0" encoding="utf-8"?>
<svg width="452px" height="300px" viewBox="0 0 452 300" version="1.1" xmlns:xlink="http://www.w3.org/1999/xlink" xmlns="http://www.w3.org/2000/svg">
  <g id="Group">
    <path d="M0 0L450 0L450 300L0 300L0 0Z" id="Rectangle" fill="#2D2D2D" fill-rule="evenodd" stroke="none" />
    <g id="PLACEHOLDER" fill="#FFFFFF" transform="matrix(1.0000006 -1.6380817E-08 1.6380817E-08 1.0000006 0.19189453 12.0000305)">
      <path d="M159.125 33.5455L153.665 33.5455Q153.004 30.419 151.133 28.2834Q149.261 26.1477 146.619 25.0469Q143.977 23.946 140.983 23.946Q136.888 23.946 133.574 26.0156Q130.261 28.0852 128.312 32.1143Q126.364 36.1435 126.364 42Q126.364 47.8565 128.312 51.8857Q130.261 55.9148 133.574 57.9844Q136.888 60.054 140.983 60.054Q143.977 60.054 146.619 58.9531Q149.261 57.8523 151.133 55.7166Q153.004 53.581 153.665 50.4545L159.125 50.4545Q158.288 55.0781 155.712 58.3697Q153.136 61.6612 149.327 63.4116Q145.518 65.1619 140.983 65.1619Q135.214 65.1619 130.723 62.3438Q126.232 59.5256 123.656 54.3295Q121.08 49.1335 121.08 42Q121.08 34.8665 123.656 29.6705Q126.232 24.4744 130.723 21.6563Q135.214 18.8381 140.983 18.8381Q145.518 18.8381 149.327 20.5884Q153.136 22.3388 155.712 25.6303Q158.288 28.9219 159.125 33.5455ZM286.362 54.3295Q288.938 49.1335 288.938 42Q288.938 34.8665 286.362 29.6705Q283.786 24.4744 279.294 21.6563Q274.803 18.8381 269.034 18.8381Q263.266 18.8381 258.774 21.6563Q254.283 24.4744 251.707 29.6705Q249.131 34.8665 249.131 42Q249.131 49.1335 251.707 54.3295Q254.283 59.5256 258.774 62.3438Q263.266 65.1619 269.034 65.1619Q274.803 65.1619 279.294 62.3438Q283.786 59.5256 286.362 54.3295ZM6.67898 64.5455L6.67898 19.4545L21.9148 19.4545Q27.2209 19.4545 30.6005 21.359Q33.9801 23.2635 35.6094 26.5Q37.2386 29.7365 37.2386 33.7216Q37.2386 37.7067 35.6204 40.9652Q34.0021 44.2237 30.6335 46.1502Q27.2649 48.0767 22.0028 48.0767L12.1392 48.0767L12.1392 64.5455L6.67898 64.5455ZM46.0455 64.5455L46.0455 19.4545L51.5057 19.4545L51.5057 59.7017L72.4659 59.7017L72.4659 64.5455L46.0455 64.5455ZM77.0455 64.5455L82.7699 64.5455L87.3054 51.7756L105.536 51.7756L110.071 64.5455L115.795 64.5455L99.2386 19.4545L93.6023 19.4545L77.0455 64.5455ZM195.145 19.4545L167.932 19.4545L167.932 64.5455L195.497 64.5455L195.497 59.7017L173.392 59.7017L173.392 44.3778L193.736 44.3778L193.736 39.5341L173.392 39.5341L173.392 24.2983L195.145 24.2983L195.145 19.4545ZM205.009 19.4545L210.469 19.4545L210.469 39.5341L234.511 39.5341L234.511 19.4545L239.972 19.4545L239.972 64.5455L234.511 64.5455L234.511 44.3778L210.469 44.3778L210.469 64.5455L205.009 64.5455L205.009 19.4545ZM298.097 19.4545L303.557 19.4545L303.557 59.7017L324.517 59.7017L324.517 64.5455L298.097 64.5455L298.097 19.4545ZM332.972 64.5455L346.886 64.5455Q353.756 64.5455 358.555 61.8264Q363.355 59.1072 365.865 54.0323Q368.375 48.9574 368.375 41.9119Q368.375 34.9105 365.887 29.8796Q363.399 24.8487 358.732 22.1516Q354.064 19.4545 347.503 19.4545L332.972 19.4545L332.972 64.5455ZM377.534 19.4545L404.747 19.4545L404.747 24.2983L382.994 24.2983L382.994 39.5341L403.338 39.5341L403.338 44.3778L382.994 44.3778L382.994 59.7017L405.099 59.7017L405.099 64.5455L377.534 64.5455L377.534 19.4545ZM429.847 19.4545L414.611 19.4545L414.611 64.5455L420.071 64.5455L420.071 46.9318L429.935 46.9318Q430.529 46.9318 431.08 46.9098L440.591 64.5455L446.932 64.5455L436.738 45.919Q441.053 44.4439 443.112 41.1083Q445.17 37.7727 445.17 33.2813Q445.17 29.2962 443.541 26.1697Q441.912 23.0433 438.521 21.2489Q435.131 19.4545 429.847 19.4545ZM281.705 32.1143Q283.653 36.1435 283.653 42Q283.653 47.8565 281.705 51.8857Q279.756 55.9148 276.443 57.9844Q273.129 60.054 269.034 60.054Q264.939 60.054 261.625 57.9844Q258.312 55.9148 256.363 51.8857Q254.415 47.8565 254.415 42Q254.415 36.1435 256.363 32.1143Q258.312 28.0852 261.625 26.0156Q264.939 23.946 269.034 23.946Q273.129 23.946 276.443 26.0156Q279.756 28.0852 281.705 32.1143ZM12.1392 43.233L21.8267 43.233Q27.2649 43.233 29.5657 40.5028Q31.8665 37.7727 31.8665 33.7216Q31.8665 29.6484 29.5547 26.9734Q27.2429 24.2983 21.7386 24.2983L12.1392 24.2983L12.1392 43.233ZM346.534 59.7017L338.432 59.7017L338.432 24.2983L347.151 24.2983Q355.077 24.2983 359.084 29.0099Q363.091 33.7216 363.091 41.9119Q363.091 50.1683 359.007 54.935Q354.923 59.7017 346.534 59.7017ZM429.759 42L420.071 42L420.071 24.2983L429.67 24.2983Q435.153 24.2983 437.475 26.7532Q439.798 29.2081 439.798 33.2813Q439.798 37.3324 437.487 39.6662Q435.175 42 429.759 42ZM103.818 46.9318L89.0227 46.9318L96.2443 26.5881L96.5966 26.5881L103.818 46.9318Z" />
    </g>
    <g id="PLACEHOLDER" fill="#FFFFFF" transform="matrix(1.0000006 -1.6380817E-08 1.6380817E-08 1.0000006 1 78)">
      <path d="M159.125 33.5455L153.665 33.5455Q153.004 30.419 151.133 28.2834Q149.261 26.1477 146.619 25.0469Q143.977 23.946 140.983 23.946Q136.888 23.946 133.574 26.0156Q130.261 28.0852 128.312 32.1143Q126.364 36.1435 126.364 42Q126.364 47.8565 128.312 51.8857Q130.261 55.9148 133.574 57.9844Q136.888 60.054 140.983 60.054Q143.977 60.054 146.619 58.9531Q149.261 57.8523 151.133 55.7166Q153.004 53.581 153.665 50.4545L159.125 50.4545Q158.288 55.0781 155.712 58.3697Q153.136 61.6612 149.327 63.4116Q145.518 65.1619 140.983 65.1619Q135.214 65.1619 130.723 62.3438Q126.232 59.5256 123.656 54.3295Q121.08 49.1335 121.08 42Q121.08 34.8665 123.656 29.6705Q126.232 24.4744 130.723 21.6563Q135.214 18.8381 140.983 18.8381Q145.518 18.8381 149.327 20.5884Q153.136 22.3388 155.712 25.6303Q158.288 28.9219 159.125 33.5455ZM286.362 54.3295Q288.938 49.1335 288.938 42Q288.938 34.8665 286.362 29.6705Q283.786 24.4744 279.294 21.6563Q274.803 18.8381 269.034 18.8381Q263.266 18.8381 258.774 21.6563Q254.283 24.4744 251.707 29.6705Q249.131 34.8665 249.131 42Q249.131 49.1335 251.707 54.3295Q254.283 59.5256 258.774 62.3438Q263.266 65.1619 269.034 65.1619Q274.803 65.1619 279.294 62.3438Q283.786 59.5256 286.362 54.3295ZM6.67898 64.5455L6.67898 19.4545L21.9148 19.4545Q27.2209 19.4545 30.6005 21.359Q33.9801 23.2635 35.6094 26.5Q37.2386 29.7365 37.2386 33.7216Q37.2386 37.7067 35.6204 40.9652Q34.0021 44.2237 30.6335 46.1502Q27.2649 48.0767 22.0028 48.0767L12.1392 48.0767L12.1392 64.5455L6.67898 64.5455ZM46.0455 64.5455L46.0455 19.4545L51.5057 19.4545L51.5057 59.7017L72.4659 59.7017L72.4659 64.5455L46.0455 64.5455ZM77.0455 64.5455L82.7699 64.5455L87.3054 51.7756L105.536 51.7756L110.071 64.5455L115.795 64.5455L99.2386 19.4545L93.6023 19.4545L77.0455 64.5455ZM195.145 19.4545L167.932 19.4545L167.932 64.5455L195.497 64.5455L195.497 59.7017L173.392 59.7017L173.392 44.3778L193.736 44.3778L193.736 39.5341L173.392 39.5341L173.392 24.2983L195.145 24.2983L195.145 19.4545ZM205.009 19.4545L210.469 19.4545L210.469 39.5341L234.511 39.5341L234.511 19.4545L239.972 19.4545L239.972 64.5455L234.511 64.5455L234.511 44.3778L210.469 44.3778L210.469 64.5455L205.009 64.5455L205.009 19.4545ZM298.097 19.4545L303.557 19.4545L303.557 59.7017L324.517 59.7017L324.517 64.5455L298.097 64.5455L298.097 19.4545ZM332.972 64.5455L346.886 64.5455Q353.756 64.5455 358.555 61.8264Q363.355 59.1072 365.865 54.0323Q368.375 48.9574 368.375 41.9119Q368.375 34.9105 365.887 29.8796Q363.399 24.8487 358.732 22.1516Q354.064 19.4545 347.503 19.4545L332.972 19.4545L332.972 64.5455ZM377.534 19.4545L404.747 19.4545L404.747 24.2983L382.994 24.2983L382.994 39.5341L403.338 39.5341L403.338 44.3778L382.994 44.3778L382.994 59.7017L405.099 59.7017L405.099 64.5455L377.534 64.5455L377.534 19.4545ZM429.847 19.4545L414.611 19.4545L414.611 64.5455L420.071 64.5455L420.071 46.9318L429.935 46.9318Q430.529 46.9318 431.08 46.9098L440.591 64.5455L446.932 64.5455L436.738 45.919Q441.053 44.4439 443.112 41.1083Q445.17 37.7727 445.17 33.2813Q445.17 29.2962 443.541 26.1697Q441.912 23.0433 438.521 21.2489Q435.131 19.4545 429.847 19.4545ZM281.705 32.1143Q283.653 36.1435 283.653 42Q283.653 47.8565 281.705 51.8857Q279.756 55.9148 276.443 57.9844Q273.129 60.054 269.034 60.054Q264.939 60.054 261.625 57.9844Q258.312 55.9148 256.363 51.8857Q254.415 47.8565 254.415 42Q254.415 36.1435 256.363 32.1143Q258.312 28.0852 261.625 26.0156Q264.939 23.946 269.034 23.946Q273.129 23.946 276.443 26.0156Q279.756 28.0852 281.705 32.1143ZM12.1392 43.233L21.8267 43.233Q27.2649 43.233 29.5657 40.5028Q31.8665 37.7727 31.8665 33.7216Q31.8665 29.6484 29.5547 26.9734Q27.2429 24.2983 21.7386 24.2983L12.1392 24.2983L12.1392 43.233ZM346.534 59.7017L338.432 59.7017L338.432 24.2983L347.151 24.2983Q355.077 24.2983 359.084 29.0099Q363.091 33.7216 363.091 41.9119Q363.091 50.1683 359.007 54.935Q354.923 59.7017 346.534 59.7017ZM429.759 42L420.071 42L420.071 24.2983L429.67 24.2983Q435.153 24.2983 437.475 26.7532Q439.798 29.2081 439.798 33.2813Q439.798 37.3324 437.487 39.6662Q435.175 42 429.759 42ZM103.818 46.9318L89.0227 46.9318L96.2443 26.5881L96.5966 26.5881L103.818 46.9318Z" />
    </g>
    <g id="PLACEHOLDER" fill="#FFFFFF" transform="matrix(1.0000006 -1.6380817E-08 1.6380817E-08 1.0000006 0.99990845 139)">
      <path d="M159.125 33.5455L153.665 33.5455Q153.004 30.419 151.133 28.2834Q149.261 26.1477 146.619 25.0469Q143.977 23.946 140.983 23.946Q136.888 23.946 133.574 26.0156Q130.261 28.0852 128.312 32.1143Q126.364 36.1435 126.364 42Q126.364 47.8565 128.312 51.8857Q130.261 55.9148 133.574 57.9844Q136.888 60.054 140.983 60.054Q143.977 60.054 146.619 58.9531Q149.261 57.8523 151.133 55.7166Q153.004 53.581 153.665 50.4545L159.125 50.4545Q158.288 55.0781 155.712 58.3697Q153.136 61.6612 149.327 63.4116Q145.518 65.1619 140.983 65.1619Q135.214 65.1619 130.723 62.3438Q126.232 59.5256 123.656 54.3295Q121.08 49.1335 121.08 42Q121.08 34.8665 123.656 29.6705Q126.232 24.4744 130.723 21.6563Q135.214 18.8381 140.983 18.8381Q145.518 18.8381 149.327 20.5884Q153.136 22.3388 155.712 25.6303Q158.288 28.9219 159.125 33.5455ZM286.362 54.3295Q288.938 49.1335 288.938 42Q288.938 34.8665 286.362 29.6705Q283.786 24.4744 279.294 21.6563Q274.803 18.8381 269.034 18.8381Q263.266 18.8381 258.774 21.6563Q254.283 24.4744 251.707 29.6705Q249.131 34.8665 249.131 42Q249.131 49.1335 251.707 54.3295Q254.283 59.5256 258.774 62.3438Q263.266 65.1619 269.034 65.1619Q274.803 65.1619 279.294 62.3438Q283.786 59.5256 286.362 54.3295ZM6.67898 64.5455L6.67898 19.4545L21.9148 19.4545Q27.2209 19.4545 30.6005 21.359Q33.9801 23.2635 35.6094 26.5Q37.2386 29.7365 37.2386 33.7216Q37.2386 37.7067 35.6204 40.9652Q34.0021 44.2237 30.6335 46.1502Q27.2649 48.0767 22.0028 48.0767L12.1392 48.0767L12.1392 64.5455L6.67898 64.5455ZM46.0455 64.5455L46.0455 19.4545L51.5057 19.4545L51.5057 59.7017L72.4659 59.7017L72.4659 64.5455L46.0455 64.5455ZM77.0455 64.5455L82.7699 64.5455L87.3054 51.7756L105.536 51.7756L110.071 64.5455L115.795 64.5455L99.2386 19.4545L93.6023 19.4545L77.0455 64.5455ZM195.145 19.4545L167.932 19.4545L167.932 64.5455L195.497 64.5455L195.497 59.7017L173.392 59.7017L173.392 44.3778L193.736 44.3778L193.736 39.5341L173.392 39.5341L173.392 24.2983L195.145 24.2983L195.145 19.4545ZM205.009 19.4545L210.469 19.4545L210.469 39.5341L234.511 39.5341L234.511 19.4545L239.972 19.4545L239.972 64.5455L234.511 64.5455L234.511 44.3778L210.469 44.3778L210.469 64.5455L205.009 64.5455L205.009 19.4545ZM298.097 19.4545L303.557 19.4545L303.557 59.7017L324.517 59.7017L324.517 64.5455L298.097 64.5455L298.097 19.4545ZM332.972 64.5455L346.886 64.5455Q353.756 64.5455 358.555 61.8264Q363.355 59.1072 365.865 54.0323Q368.375 48.9574 368.375 41.9119Q368.375 34.9105 365.887 29.8796Q363.399 24.8487 358.732 22.1516Q354.064 19.4545 347.503 19.4545L332.972 19.4545L332.972 64.5455ZM377.534 19.4545L404.747 19.4545L404.747 24.2983L382.994 24.2983L382.994 39.5341L403.338 39.5341L403.338 44.3778L382.994 44.3778L382.994 59.7017L405.099 59.7017L405.099 64.5455L377.534 64.5455L377.534 19.4545ZM429.847 19.4545L414.611 19.4545L414.611 64.5455L420.071 64.5455L420.071 46.9318L429.935 46.9318Q430.529 46.9318 431.08 46.9098L440.591 64.5455L446.932 64.5455L436.738 45.919Q441.053 44.4439 443.112 41.1083Q445.17 37.7727 445.17 33.2813Q445.17 29.2962 443.541 26.1697Q441.912 23.0433 438.521 21.2489Q435.131 19.4545 429.847 19.4545ZM281.705 32.1143Q283.653 36.1435 283.653 42Q283.653 47.8565 281.705 51.8857Q279.756 55.9148 276.443 57.9844Q273.129 60.054 269.034 60.054Q264.939 60.054 261.625 57.9844Q258.312 55.9148 256.363 51.8857Q254.415 47.8565 254.415 42Q254.415 36.1435 256.363 32.1143Q258.312 28.0852 261.625 26.0156Q264.939 23.946 269.034 23.946Q273.129 23.946 276.443 26.0156Q279.756 28.0852 281.705 32.1143ZM12.1392 43.233L21.8267 43.233Q27.2649 43.233 29.5657 40.5028Q31.8665 37.7727 31.8665 33.7216Q31.8665 29.6484 29.5547 26.9734Q27.2429 24.2983 21.7386 24.2983L12.1392 24.2983L12.1392 43.233ZM346.534 59.7017L338.432 59.7017L338.432 24.2983L347.151 24.2983Q355.077 24.2983 359.084 29.0099Q363.091 33.7216 363.091 41.9119Q363.091 50.1683 359.007 54.935Q354.923 59.7017 346.534 59.7017ZM429.759 42L420.071 42L420.071 24.2983L429.67 24.2983Q435.153 24.2983 437.475 26.7532Q439.798 29.2081 439.798 33.2813Q439.798 37.3324 437.487 39.6662Q435.175 42 429.759 42ZM103.818 46.9318L89.0227 46.9318L96.2443 26.5881L96.5966 26.5881L103.818 46.9318Z" />
    </g>
    <g id="PLACEHOLDER" fill="#FFFFFF" transform="matrix(1.0000006 -1.6380817E-08 1.6380817E-08 1.0000006 0 205)">
      <path d="M159.125 33.5455L153.665 33.5455Q153.004 30.419 151.133 28.2834Q149.261 26.1477 146.619 25.0469Q143.977 23.946 140.983 23.946Q136.888 23.946 133.574 26.0156Q130.261 28.0852 128.312 32.1143Q126.364 36.1435 126.364 42Q126.364 47.8565 128.312 51.8857Q130.261 55.9148 133.574 57.9844Q136.888 60.054 140.983 60.054Q143.977 60.054 146.619 58.9531Q149.261 57.8523 151.133 55.7166Q153.004 53.581 153.665 50.4545L159.125 50.4545Q158.288 55.0781 155.712 58.3697Q153.136 61.6612 149.327 63.4116Q145.518 65.1619 140.983 65.1619Q135.214 65.1619 130.723 62.3438Q126.232 59.5256 123.656 54.3295Q121.08 49.1335 121.08 42Q121.08 34.8665 123.656 29.6705Q126.232 24.4744 130.723 21.6563Q135.214 18.8381 140.983 18.8381Q145.518 18.8381 149.327 20.5884Q153.136 22.3388 155.712 25.6303Q158.288 28.9219 159.125 33.5455ZM286.362 54.3295Q288.938 49.1335 288.938 42Q288.938 34.8665 286.362 29.6705Q283.786 24.4744 279.294 21.6563Q274.803 18.8381 269.034 18.8381Q263.266 18.8381 258.774 21.6563Q254.283 24.4744 251.707 29.6705Q249.131 34.8665 249.131 42Q249.131 49.1335 251.707 54.3295Q254.283 59.5256 258.774 62.3438Q263.266 65.1619 269.034 65.1619Q274.803 65.1619 279.294 62.3438Q283.786 59.5256 286.362 54.3295ZM6.67898 64.5455L6.67898 19.4545L21.9148 19.4545Q27.2209 19.4545 30.6005 21.359Q33.9801 23.2635 35.6094 26.5Q37.2386 29.7365 37.2386 33.7216Q37.2386 37.7067 35.6204 40.9652Q34.0021 44.2237 30.6335 46.1502Q27.2649 48.0767 22.0028 48.0767L12.1392 48.0767L12.1392 64.5455L6.67898 64.5455ZM46.0455 64.5455L46.0455 19.4545L51.5057 19.4545L51.5057 59.7017L72.4659 59.7017L72.4659 64.5455L46.0455 64.5455ZM77.0455 64.5455L82.7699 64.5455L87.3054 51.7756L105.536 51.7756L110.071 64.5455L115.795 64.5455L99.2386 19.4545L93.6023 19.4545L77.0455 64.5455ZM195.145 19.4545L167.932 19.4545L167.932 64.5455L195.497 64.5455L195.497 59.7017L173.392 59.7017L173.392 44.3778L193.736 44.3778L193.736 39.5341L173.392 39.5341L173.392 24.2983L195.145 24.2983L195.145 19.4545ZM205.009 19.4545L210.469 19.4545L210.469 39.5341L234.511 39.5341L234.511 19.4545L239.972 19.4545L239.972 64.5455L234.511 64.5455L234.511 44.3778L210.469 44.3778L210.469 64.5455L205.009 64.5455L205.009 19.4545ZM298.097 19.4545L303.557 19.4545L303.557 59.7017L324.517 59.7017L324.517 64.5455L298.097 64.5455L298.097 19.4545ZM332.972 64.5455L346.886 64.5455Q353.756 64.5455 358.555 61.8264Q363.355 59.1072 365.865 54.0323Q368.375 48.9574 368.375 41.9119Q368.375 34.9105 365.887 29.8796Q363.399 24.8487 358.732 22.1516Q354.064 19.4545 347.503 19.4545L332.972 19.4545L332.972 64.5455ZM377.534 19.4545L404.747 19.4545L404.747 24.2983L382.994 24.2983L382.994 39.5341L403.338 39.5341L403.338 44.3778L382.994 44.3778L382.994 59.7017L405.099 59.7017L405.099 64.5455L377.534 64.5455L377.534 19.4545ZM429.847 19.4545L414.611 19.4545L414.611 64.5455L420.071 64.5455L420.071 46.9318L429.935 46.9318Q430.529 46.9318 431.08 46.9098L440.591 64.5455L446.932 64.5455L436.738 45.919Q441.053 44.4439 443.112 41.1083Q445.17 37.7727 445.17 33.2813Q445.17 29.2962 443.541 26.1697Q441.912 23.0433 438.521 21.2489Q435.131 19.4545 429.847 19.4545ZM281.705 32.1143Q283.653 36.1435 283.653 42Q283.653 47.8565 281.705 51.8857Q279.756 55.9148 276.443 57.9844Q273.129 60.054 269.034 60.054Q264.939 60.054 261.625 57.9844Q258.312 55.9148 256.363 51.8857Q254.415 47.8565 254.415 42Q254.415 36.1435 256.363 32.1143Q258.312 28.0852 261.625 26.0156Q264.939 23.946 269.034 23.946Q273.129 23.946 276.443 26.0156Q279.756 28.0852 281.705 32.1143ZM12.1392 43.233L21.8267 43.233Q27.2649 43.233 29.5657 40.5028Q31.8665 37.7727 31.8665 33.7216Q31.8665 29.6484 29.5547 26.9734Q27.2429 24.2983 21.7386 24.2983L12.1392 24.2983L12.1392 43.233ZM346.534 59.7017L338.432 59.7017L338.432 24.2983L347.151 24.2983Q355.077 24.2983 359.084 29.0099Q363.091 33.7216 363.091 41.9119Q363.091 50.1683 359.007 54.935Q354.923 59.7017 346.534 59.7017ZM429.759 42L420.071 42L420.071 24.2983L429.67 24.2983Q435.153 24.2983 437.475 26.7532Q439.798 29.2081 439.798 33.2813Q439.798 37.3324 437.487 39.6662Q435.175 42 429.759 42ZM103.818 46.9318L89.0227 46.9318L96.2443 26.5881L96.5966 26.5881L103.818 46.9318Z" />
    </g>
  </g>
</svg>